<svg width="65" height="33" viewBox="0 0 65 33" fill="none" xmlns="http://www.w3.org/2000/svg">
<path d="M10.7937 27.2446H8.8291V31.8902H10.7937V27.2446Z" fill="white"/>
<path d="M0.368164 23.1118V31.8905H2.21854V24.3627L4.68203 31.8905H6.31491L7.86628 27.2464H6.29257L5.54914 29.5L3.59774 23.1118H0.368164Z" fill="white"/>
<path d="M15.6877 29.0403C15.6877 30.0259 15.6877 30.839 14.5433 30.839C13.5921 30.839 13.5921 30.0714 13.5921 29.5665V27.5202H11.7861V29.7157C11.7861 30.0023 11.7861 30.8052 12.1837 31.273C12.4081 31.5247 12.689 31.7254 13.0058 31.8602C13.3225 31.9949 13.667 32.0604 14.0139 32.0516C14.3718 32.0664 14.7274 31.9891 15.0431 31.8279C15.3588 31.6667 15.623 31.4275 15.8079 31.1355L15.869 31.9031H17.6038C17.5796 31.7431 17.5676 31.6395 17.555 31.4796C17.555 31.3299 17.5434 31.1816 17.5188 29.9328V27.5181H15.6877V29.0403Z" fill="white"/>
<path d="M18.9104 27.7899C18.9104 28.9704 19.9589 29.2573 20.4527 29.3945L21.5606 29.6814C22.2593 29.864 22.4031 30.0707 22.4031 30.3345C22.4031 30.6783 22.1019 31.0233 21.464 31.0233C20.7174 31.0233 20.4763 30.5987 20.4524 30.2324H18.7786C18.7711 30.6506 18.9303 31.0559 19.2243 31.3668C19.7773 31.9167 20.5248 32.0769 21.3072 32.0769C23.1982 32.0769 24.1021 31.0799 24.1021 30.0836C24.1021 29.2926 23.5837 28.7539 22.4765 28.4664L21.3793 28.1798C20.8499 28.042 20.549 27.9626 20.549 27.5724C20.5501 27.5548 20.5524 27.5373 20.5559 27.52H18.935C18.9189 27.6091 18.9104 27.6992 18.9095 27.7896" fill="white"/>
<path d="M28.971 28.3725H26.7678C26.7751 28.0706 26.866 27.7759 27.0312 27.5181H25.319C25.0972 28.0322 24.9879 28.584 24.9977 29.1398C24.9977 30.0681 25.2265 30.8468 25.7801 31.3975C26.4187 32.0265 27.4064 32.119 27.9241 32.119C28.8164 32.119 29.6105 31.8911 30.0565 31.4434C30.4046 31.1049 30.6101 30.6567 30.6344 30.1837H29.0081C28.97 30.4198 28.8397 30.6335 28.6433 30.7823C28.4469 30.931 28.1987 31.0038 27.9484 30.9861C26.707 30.9861 26.707 29.8163 26.707 29.438H30.7902C30.8468 28.7869 30.754 28.1318 30.5183 27.5181H28.7721C28.9123 27.7826 28.9808 28.0763 28.9713 28.3725" fill="white"/>
<path d="M35.8713 29.0403C35.8713 30.0259 35.8713 30.839 34.7269 30.839C33.7757 30.839 33.7757 30.0714 33.7757 29.5665V27.5202H31.9697V29.7157C31.9697 30.0023 31.9697 30.8052 32.3672 31.273C32.5916 31.5249 32.8725 31.7256 33.1893 31.8604C33.5061 31.9951 33.8506 32.0605 34.1975 32.0516C34.5555 32.0667 34.9111 31.9895 35.2269 31.8282C35.5426 31.667 35.8068 31.4277 35.9915 31.1355L36.0526 31.9031H37.7874C37.7638 31.7431 37.7512 31.6395 37.7393 31.4796C37.7393 31.3299 37.7273 31.1816 37.7037 29.9328V27.5181H35.8713V29.0403Z" fill="white"/>
<path d="M39.3568 31.9022H41.1508V28.4989C41.12 28.1532 41.2122 27.8078 41.4126 27.5181H39.3564L39.3568 31.9022Z" fill="white"/>
<path d="M47.1863 28.5002V31.9041H48.9803V28.6377C48.9947 28.2637 48.9702 27.8894 48.907 27.52H46.9502C47.1325 27.816 47.2144 28.1583 47.185 28.5002" fill="white"/>
<path d="M43.2707 28.4658V31.9032H45.0647V29.0036C45.0647 28.455 45.0773 27.871 45.3647 27.52H43.0479C43.2206 27.8067 43.2981 28.1364 43.2701 28.4658" fill="white"/>
<path d="M0.477539 10.1333V18.4077H5.90212V16.9974H2.38079V10.1333H0.477539Z" fill="white"/>
<path d="M8.44224 16.619C8.44224 15.9302 9.26057 15.5876 10.4059 15.6792C10.4311 16.0536 10.3837 16.4292 10.2659 16.7873H12.1033L12.092 14.6127C12.1203 14.1078 11.9721 13.6081 11.6706 13.1917C11.0681 12.5281 10.0081 12.4466 9.5023 12.4466C8.85175 12.4201 8.20839 12.5847 7.65948 12.918C7.43728 13.075 7.25863 13.2812 7.13897 13.5186C7.01931 13.7561 6.96224 14.0178 6.97271 14.2809H8.71985C8.70667 14.1002 8.75287 13.9201 8.85204 13.7655C8.92866 13.6637 9.03022 13.5812 9.14791 13.5251C9.26561 13.4691 9.39589 13.4412 9.52748 13.4439C9.6958 13.4374 9.8622 13.48 10.0043 13.5661C10.1464 13.6522 10.2575 13.7776 10.3225 13.9254C10.3965 14.175 10.4247 14.4349 10.4059 14.6936C9.81547 14.6936 8.74408 14.6936 7.9972 15.0138C7.62049 15.153 7.29629 15.3965 7.06648 15.7128C6.83668 16.0291 6.71181 16.4037 6.70801 16.7882H8.45987C8.44799 16.7326 8.44167 16.676 8.44098 16.6193" fill="white"/>
<path d="M15.4562 15.0139C15.4365 14.7059 15.5117 14.3991 15.6728 14.1313C15.7773 13.9904 15.9166 13.8761 16.0783 13.7982C16.2401 13.7204 16.4194 13.6814 16.6006 13.6848C16.7797 13.6785 16.9569 13.7216 17.1108 13.8091C17.2646 13.8965 17.3886 14.0244 17.4677 14.1774C17.551 14.3775 17.584 14.5934 17.564 14.8078V16.7862H19.3826V15.2777C19.3826 14.2014 19.3458 13.9031 19.2139 13.5473C19.0566 13.146 18.553 12.4584 17.3588 12.4584C16.9632 12.4323 16.5679 12.5132 16.2185 12.6918C15.8691 12.8703 15.5798 13.1391 15.3841 13.4673L15.3341 12.5968H13.626C13.6622 12.9987 13.6622 13.6282 13.6622 13.6503V16.7859H15.4562V15.0139Z" fill="white"/>
<path d="M22.4406 15.5982C22.4406 15.0142 22.5728 13.6516 23.7654 13.6516C24.5721 13.6516 25.0901 14.2697 25.0901 15.4042C25.1044 15.874 25.0056 16.3407 24.8012 16.7686C24.7977 16.7755 24.7927 16.7812 24.7892 16.7878H26.8237V10.1333H25.0297V13.3309C24.8394 13.071 24.5823 12.8619 24.283 12.7234C23.9836 12.5849 23.652 12.5216 23.3197 12.5396C21.7299 12.5396 20.634 13.7325 20.634 15.6455C20.63 16.0314 20.6823 16.4159 20.7895 16.7881H22.6811C22.5108 16.4134 22.4287 16.0078 22.4406 15.5997" fill="white"/>
<path d="M31.0267 13.5839C32.0625 13.5839 32.0864 14.6147 32.0864 14.8789H29.8832C29.9194 14.2017 30.2458 13.583 31.0273 13.583L31.0267 13.5839ZM29.8228 15.9432H33.9031C33.9738 15.2188 33.8497 14.4891 33.5424 13.8229C33.3201 13.3879 32.9692 13.0241 32.5328 12.7761C32.0964 12.528 31.5934 12.4065 31.0855 12.4264C30.4781 12.4205 29.8826 12.5873 29.3755 12.9056C28.3514 13.5818 28.1106 14.7025 28.1106 15.6441C28.1066 16.0294 28.1562 16.4136 28.2582 16.7866H29.9477C29.8544 16.5145 29.8118 16.229 29.8218 15.9429" fill="white"/>
<path d="M40.083 16.5858C40.083 15.7949 39.5646 15.2555 38.4573 14.9686L37.3611 14.6805C36.8292 14.5439 36.5295 14.4637 36.5295 14.0741C36.5295 13.7189 36.8902 13.5011 37.3727 13.5011C37.4784 13.4853 37.5863 13.4912 37.6894 13.5183C37.7925 13.5454 37.8883 13.5932 37.9704 13.6584C38.0524 13.7237 38.1189 13.8048 38.1653 13.8965C38.2118 13.9882 38.2371 14.0882 38.2395 14.1899H39.8658C39.8173 13.0322 38.8057 12.4829 37.554 12.4829C35.9753 12.4829 34.8916 13.1717 34.8916 14.2927C34.8916 15.4732 35.9394 15.7601 36.4338 15.8979L37.5417 16.1845C38.1961 16.3561 38.362 16.5484 38.3812 16.7885H40.0597C40.0721 16.7212 40.08 16.6532 40.0833 16.5849" fill="white"/>
<path d="M3.79013 7.02822C4.6692 7.02822 5.27131 6.87848 5.27131 5.92793C5.27131 4.97738 4.66826 4.82823 3.79013 4.82823H2.33098V7.02732L3.79013 7.02822ZM3.79013 3.45182C4.57258 3.45182 5.00598 3.14335 5.00598 2.47851C5.00598 1.81366 4.57384 1.5025 3.79013 1.5025H2.33098V3.45182H3.79013ZM0.46582 8.40254V0.128481H3.73001C5.28327 0.03654 6.87334 0.654669 6.87334 2.27127C6.87334 3.1763 6.21239 3.8067 5.34464 4.08223V4.10469C6.44089 4.32361 7.25985 5.04506 7.25985 6.26095C7.25985 7.89971 5.09127 8.49568 3.75519 8.40374L0.46582 8.40254Z" fill="white"/>
<path d="M9.9021 6.60384C9.89902 6.71394 9.91977 6.82347 9.96304 6.92562C10.0063 7.02777 10.0712 7.12037 10.1537 7.19766C10.2361 7.27495 10.3344 7.33528 10.4424 7.3749C10.5504 7.41453 10.6658 7.43261 10.7815 7.42801C11.7811 7.42801 11.8167 6.37444 11.8167 5.69851C11.191 5.68563 9.9021 5.67455 9.9021 6.60264V6.60384ZM8.44453 4.27657C8.42807 3.98912 8.49587 3.70296 8.64037 3.45003C8.78487 3.1971 9.00038 2.98734 9.26286 2.84416C9.81357 2.57641 10.4281 2.44977 11.0459 2.47669C12.2624 2.47669 13.6233 2.90136 13.6233 4.63296V7.77182C13.638 7.98289 13.6662 8.19291 13.7076 8.40073H12.0814C12.0442 8.14633 12.0238 7.88998 12.0203 7.63316H11.9973C11.8125 7.94048 11.54 8.19176 11.2114 8.35796C10.8828 8.52415 10.5115 8.59847 10.1404 8.57233C9.00918 8.57233 8.16504 7.9542 8.16504 6.83025C8.16984 6.43998 8.29459 6.05958 8.5239 5.73597C8.75321 5.41235 9.07705 5.15968 9.45548 5.0091C10.2106 4.74865 11.015 4.64302 11.816 4.69914V4.16008C11.8131 4.0608 11.7889 3.96314 11.7451 3.873C11.7013 3.78286 11.6387 3.70213 11.5612 3.63568C11.4836 3.56924 11.3927 3.51847 11.2939 3.48645C11.1951 3.45443 11.0905 3.44183 10.9864 3.44941C10.8755 3.4507 10.766 3.47344 10.6646 3.51624C10.5632 3.55903 10.472 3.62099 10.3966 3.69836C10.3211 3.77572 10.263 3.86687 10.2257 3.96627C10.1884 4.06567 10.1728 4.17124 10.1797 4.27657H8.44453Z" fill="white"/>
<path d="M17.9862 7.42924C18.9619 7.42924 19.2867 6.31697 19.2867 5.52724C19.2867 4.73751 18.9616 3.62524 17.9862 3.62524C16.8299 3.62524 16.6857 4.64347 16.6857 5.52724C16.6857 6.41101 16.8302 7.42924 17.9862 7.42924ZM19.2867 0.129395H21.0934V7.25704C21.0934 7.63529 21.1296 8.02461 21.1544 8.40256H19.3469C19.3226 8.12703 19.2984 7.86349 19.2984 7.58797H19.2754C19.094 7.90148 18.8238 8.1603 18.4956 8.335C18.1673 8.5097 17.7941 8.59329 17.4184 8.57625C15.6477 8.57625 14.8174 7.00518 14.8174 5.52844C14.8174 3.98162 15.7685 2.47942 17.6476 2.47942C17.9666 2.48911 18.2787 2.56986 18.559 2.71518C18.8392 2.86051 19.0798 3.06635 19.2612 3.31617H19.2855L19.2867 0.129395Z" fill="white"/>
<path d="M22.5698 8.40285H24.3765V2.65012H22.5689L22.5698 8.40285ZM22.5088 1.60673H24.435V0.129395H22.5088V1.60673Z" fill="white"/>
<path d="M29.0426 4.18469C29.0184 3.79537 28.6335 3.62346 28.2243 3.62346C27.7308 3.62346 27.5004 3.76003 27.5004 4.13887C27.5004 5.0439 30.9575 4.5282 30.9575 6.68266C30.9575 7.94348 29.3439 8.57358 28.2234 8.57358C26.8149 8.57358 25.5858 8.0474 25.5635 6.72878H27.236C27.2722 7.178 27.6946 7.42687 28.2237 7.42687C28.7178 7.42687 29.0911 7.23221 29.0911 6.78688C29.0911 6.32778 28.2237 6.13311 27.8636 6.05345C26.7073 5.78901 25.6352 5.54853 25.6352 4.20745C25.6352 3.00444 27.1639 2.47705 28.2249 2.47705C29.5022 2.47705 30.5855 2.91339 30.6708 4.18409L29.0426 4.18469Z" fill="white"/>
<path d="M35.3103 4.66506C35.298 4.19667 35.0938 3.62316 34.3957 3.62316C33.6236 3.62316 33.612 4.99778 33.588 5.44491C33.6362 5.97109 33.6491 7.42747 34.4193 7.42747C35.118 7.42747 35.3226 6.7737 35.3342 6.30292H37.0933C37.0323 7.77038 36.0811 8.57209 34.418 8.57209C32.624 8.57209 31.7197 7.04773 31.7197 5.52427C31.7197 4.00081 32.623 2.47705 34.418 2.47705C35.9603 2.47705 37.1034 3.3126 37.0933 4.66326L35.3103 4.66506Z" fill="white"/>
<path d="M38.2744 8.4012V0.127441H40.0685V3.3259L40.0921 3.34836C40.2935 3.06033 40.5713 2.82806 40.8974 2.67507C41.2235 2.52208 41.5863 2.45381 41.949 2.47717C42.5511 2.47717 43.7195 2.90123 43.9363 3.73798C44.0137 4.03827 44.0542 4.34611 44.0569 4.65529V8.4012H42.2502V4.941C42.2383 4.32287 42.0573 3.62328 41.1656 3.62328C40.5991 3.62328 40.1068 4.10245 40.082 4.941V8.4012H38.2744Z" fill="white"/>
<path d="M49.0411 4.83846C49.0411 4.20955 48.8601 3.62496 47.9807 3.62496C47.1501 3.62496 46.9694 4.20775 46.9462 4.83846H49.0411ZM46.9462 5.98427C46.9462 6.72938 47.0541 7.42896 47.9807 7.42896C48.608 7.42896 48.9212 7.21064 49.0886 6.68326H50.7155C50.5581 8.10429 49.3898 8.57418 47.9807 8.57418C45.9094 8.57418 45.0791 7.46281 45.0791 5.53834C45.0791 3.80615 46.1385 2.47705 47.9807 2.47705C49.1119 2.47705 50.0527 2.84451 50.5588 3.85466C50.7204 4.17901 50.8223 4.52739 50.86 4.88458C50.9 5.25023 50.9159 5.61792 50.9075 5.98547L46.9462 5.98427Z" fill="white"/>
<path d="M55.2108 4.18469C55.1866 3.79537 54.8016 3.62346 54.3925 3.62346C53.899 3.62346 53.6686 3.76003 53.6686 4.13887C53.6686 5.0439 57.1235 4.5282 57.1235 6.68266C57.1235 7.94348 55.5092 8.57358 54.39 8.57358C52.9808 8.57358 51.7521 8.0474 51.7275 6.72878H53.4039C53.4394 7.178 53.8624 7.42687 54.3915 7.42687C54.8857 7.42687 55.259 7.23221 55.259 6.78688C55.259 6.32778 54.3915 6.13311 54.0315 6.05345C52.8751 5.78901 51.8031 5.54853 51.8031 4.20745C51.8031 3.00444 53.3318 2.47705 54.3928 2.47705C55.67 2.47705 56.7533 2.91339 56.8386 4.18409L55.2108 4.18469Z" fill="white"/>
<path d="M12.3068 22.9298L11.902 24.0633C11.4268 24.2726 10.9071 24.374 10.3837 24.3598C8.54623 24.3598 8.07915 23.2706 8.07915 22.3153C8.07563 21.6936 8.25356 21.0833 8.59313 20.5522C9.02149 19.8853 9.81527 19.2779 11.1935 19.2779C11.763 19.2737 12.3247 19.4035 12.8286 19.6559L12.5561 20.7151H12.3304C12.3694 19.9595 12.0578 19.5298 11.1469 19.5298C9.55089 19.5298 8.93557 21.2264 8.93557 22.5078C8.93557 23.5746 9.51973 24.1083 10.3604 24.1083C11.2637 24.1083 11.6763 23.6342 12.0814 22.9301L12.3068 22.9298Z" fill="white"/>
<path d="M12.9111 24.3226L13.511 21.8408C13.6275 21.3296 13.6511 21.1592 13.5186 21.152L13.0282 21.1152L13.0672 20.9373L14.313 20.7444L14.3517 20.7744L14.025 22.0709H14.0565C14.4458 21.2856 14.9595 20.7376 15.3724 20.7376C15.4178 20.7315 15.4641 20.7356 15.5076 20.7495C15.5511 20.7634 15.5906 20.7866 15.623 20.8175C15.6554 20.8483 15.6799 20.8859 15.6944 20.9273C15.709 20.9687 15.7133 21.0127 15.707 21.0559C15.6994 21.256 15.5203 21.5228 15.3334 21.5228C15.0923 21.5228 15.1231 21.3449 14.9132 21.3449C14.7033 21.3449 14.3684 21.8633 14.0949 22.5674C13.8867 23.1159 13.71 23.6748 13.5655 24.2415L12.9111 24.3226Z" fill="white"/>
<path d="M18.5263 23.3143C18.3571 23.6177 18.1051 23.872 17.7969 24.0506C17.4886 24.2292 17.1354 24.3255 16.7745 24.3292C16.3153 24.3292 15.6924 24.1513 15.6924 23.181C15.6973 22.5747 15.9107 21.9865 16.2998 21.5063C16.4818 21.2696 16.7194 21.0766 16.9937 20.9426C17.2679 20.8087 17.5713 20.7376 17.8795 20.7349C18.487 20.7349 18.7517 21.0682 18.7517 21.4461C18.7517 22.4015 17.2022 22.6758 16.4468 22.7576C16.4393 22.8091 16.4311 22.9795 16.4311 23.0166C16.4311 23.5575 16.5866 23.9722 17.092 23.9722C17.6451 23.9722 18.0652 23.5425 18.3457 23.172L18.5263 23.3143ZM18.0904 21.3955C18.0969 21.3427 18.0913 21.2891 18.0742 21.2385C18.0571 21.1879 18.0287 21.1413 17.9911 21.102C17.9534 21.0626 17.9074 21.0314 17.856 21.0105C17.8046 20.9895 17.7491 20.9793 17.6932 20.9804C17.1172 20.9804 16.5954 21.6845 16.4711 22.5219C17.4131 22.3958 18.0904 22.0625 18.0904 21.3955Z" fill="white"/>
<path d="M22.749 20.8118L21.9707 23.5671C21.9077 23.7893 21.9077 23.9375 22.0405 23.9375C22.235 23.9375 22.5621 23.4485 22.6946 23.1966L22.8812 23.3077C22.6244 23.8414 22.2202 24.3301 21.6591 24.3301C21.2543 24.3301 21.1608 24.0336 21.3245 23.5299L21.5502 22.8112H21.5347C21.1146 23.5152 20.4291 24.3301 19.6428 24.3301C19.1134 24.3301 18.9658 23.9672 18.9658 23.4856C18.9658 22.5668 19.7678 20.737 21.496 20.737C21.7036 20.7335 21.9074 20.7904 22.0802 20.8999L22.1032 20.81L22.749 20.8118ZM21.5577 20.9969C20.4212 20.9969 19.7124 22.7007 19.7124 23.4637C19.7124 23.7378 19.7826 23.9378 20.0161 23.9378C20.6771 23.9378 21.6043 22.3745 21.8303 21.6857C21.8932 21.4857 21.9562 21.3006 22.0015 21.1374C21.8769 21.0399 21.7188 20.9899 21.5577 20.9969Z" fill="white"/>
<path d="M24.8204 21.1003L24.174 23.6115C24.1274 23.7819 24.1349 23.9376 24.275 23.9376C24.4777 23.9376 24.8749 23.4857 25.0458 23.2042L25.2095 23.3375C24.9133 23.8634 24.4541 24.3302 23.8627 24.3302C23.4888 24.3302 23.3956 24.0338 23.5045 23.6262L24.1585 21.1001H23.5511L23.6291 20.826H24.2272L24.3984 20.1971L25.0681 19.8267L25.1537 19.8785L24.8891 20.8269H25.7455L25.6595 21.1009L24.8204 21.1003Z" fill="white"/>
<path d="M27.4858 23.3227C27.2365 23.8564 26.8318 24.3304 26.2945 24.3304C25.8894 24.3304 25.7884 24.0339 25.8973 23.6263L26.5123 21.4632C26.5822 21.2263 26.5592 21.1595 26.3565 21.1449L25.9363 21.1149L25.9908 20.937L27.3376 20.7445L27.3766 20.7816L26.5822 23.5668C26.5192 23.7815 26.5044 23.9447 26.6451 23.9447C26.8475 23.9447 27.1745 23.4556 27.3146 23.2113L27.4858 23.3227ZM27.6724 19.699C27.6787 19.7612 27.6709 19.8239 27.6497 19.883C27.6285 19.9422 27.5943 19.9963 27.5493 20.0419C27.5044 20.0874 27.4498 20.1234 27.3891 20.1473C27.3284 20.1712 27.2631 20.1825 27.1975 20.1805C27.1423 20.1829 27.0872 20.1741 27.0359 20.1546C26.9846 20.1352 26.9383 20.1055 26.8999 20.0676C26.8616 20.0298 26.8323 19.9846 26.8138 19.935C26.7953 19.8855 26.7881 19.8328 26.7927 19.7804C26.7894 19.719 26.7996 19.6575 26.8226 19.6C26.8455 19.5424 26.8808 19.4901 26.9262 19.4462C26.9715 19.4023 27.026 19.3679 27.0861 19.3451C27.1462 19.3223 27.2106 19.3117 27.2752 19.3138C27.329 19.3103 27.3829 19.3179 27.4333 19.3361C27.4837 19.3543 27.5293 19.3827 27.5671 19.4193C27.6049 19.4559 27.6338 19.4999 27.652 19.5481C27.6702 19.5964 27.6772 19.6479 27.6724 19.699Z" fill="white"/>
<path d="M29.496 20.7439L29.535 20.781L28.881 23.4407C28.7954 23.7743 28.9439 23.9447 29.1303 23.9447C29.7686 23.9447 30.7106 22.8262 30.7106 21.6037C30.7127 21.3642 30.6839 21.1253 30.625 20.8924C30.7911 20.8011 30.9781 20.7497 31.1698 20.7427C31.2327 20.7427 31.4033 21.0095 31.4033 21.2838C31.3958 21.7208 31.0451 22.5282 30.5469 23.1727C30.0411 23.8171 29.3946 24.3284 28.7639 24.3284C28.3359 24.3284 28.079 24.0172 28.2345 23.3874L28.7019 21.4761C28.7563 21.2467 28.7564 21.1578 28.593 21.1428L28.1338 21.1128L28.1804 20.9349L29.496 20.7439Z" fill="white"/>
<path d="M34.5569 23.3156C34.3877 23.6188 34.1358 23.873 33.8276 24.0515C33.5195 24.23 33.1665 24.3262 32.8057 24.33C32.3465 24.33 31.7236 24.1521 31.7236 23.1818C31.7286 22.5754 31.9419 21.9872 32.3311 21.5071C32.5133 21.2704 32.7511 21.0776 33.0255 20.9438C33.3 20.8101 33.6034 20.7392 33.9117 20.7368C34.5192 20.7368 34.7836 21.0701 34.7836 21.4481C34.7836 22.4034 33.2341 22.6778 32.4787 22.7595C32.4712 22.811 32.4633 22.9814 32.4633 23.0186C32.4633 23.5594 32.6188 23.9742 33.1242 23.9742C33.6772 23.9742 34.0974 23.5444 34.3779 23.174L34.5569 23.3156ZM34.121 21.3969C34.1275 21.344 34.1219 21.2905 34.1048 21.2399C34.0877 21.1892 34.0593 21.1427 34.0217 21.1033C33.9841 21.064 33.938 21.0328 33.8866 21.0118C33.8352 20.9909 33.7797 20.9806 33.7238 20.9818C33.1478 20.9818 32.626 21.6859 32.5017 22.5232C33.4437 22.3971 34.121 22.0638 34.121 21.3969Z" fill="white"/>
<path d="M37.4962 19.4028H38.944C39.146 20.4696 39.5514 22.2778 39.7459 23.1293H39.7617C40.58 21.9808 41.7313 20.3881 42.3388 19.4028H43.7948L43.7403 19.6101L43.3431 19.64C43.1565 19.6547 43.0863 19.7508 43.0318 19.988L42.1506 23.6552C42.104 23.8771 42.1351 23.9807 42.3142 23.9957L42.7505 24.0328L42.696 24.2403H40.6577L40.7046 24.0328L41.1015 23.9957C41.2806 23.9738 41.3587 23.8923 41.4131 23.6552L42.3086 20.0102H42.2853C41.4833 21.1659 40.1765 23.1362 39.4277 24.2772H39.2021C38.9918 23.1958 38.5638 20.8694 38.3611 19.9506H38.3456C37.7697 22.4249 37.5515 23.2398 37.5207 23.707C37.4971 23.9289 37.6151 23.9954 37.8474 24.0178L38.1436 24.0325L38.1045 24.24H36.376L36.415 24.0325L36.6407 24.0178C36.7386 24.0203 36.8346 23.9908 36.9125 23.9343C36.9904 23.8777 37.0457 23.7975 37.069 23.707C37.2327 23.2694 37.4738 22.2916 38.0347 19.9877C38.0891 19.7583 38.0501 19.6691 37.871 19.6544L37.4426 19.6098L37.4962 19.4028Z" fill="white"/>
<path d="M47.2563 20.7446L46.4776 23.5747C46.4146 23.7897 46.3995 23.9455 46.5478 23.9455C46.7423 23.9455 47.0926 23.4714 47.2402 23.2121L47.4193 23.3318C47.1621 23.8502 46.7184 24.3318 46.1811 24.3318C45.7918 24.3318 45.6983 24.0353 45.8387 23.5612L46.0565 22.8353H46.0426C45.5988 23.6439 44.867 24.3327 44.1582 24.3327C43.5744 24.3327 43.5121 23.8658 43.6679 23.3103L44.1661 21.4805C44.2291 21.2657 44.2363 21.1621 44.0572 21.1471L43.6134 21.1172L43.6521 20.9393L44.9992 20.7467L45.0383 20.7767L44.3373 23.3399C44.2284 23.74 44.2829 23.9326 44.5085 23.9326C45.077 23.9326 45.7389 22.9919 46.058 22.2882C46.2681 21.8133 46.4451 21.3258 46.5877 20.8288L47.2563 20.7446Z" fill="white"/>
<path d="M50.343 21.3063C50.34 21.3872 50.3043 21.4639 50.2434 21.5205C50.1825 21.577 50.101 21.6091 50.0159 21.6099C49.9703 21.6127 49.925 21.6002 49.888 21.5745C49.8511 21.5489 49.8247 21.5117 49.8136 21.4695C49.6735 21.1583 49.4868 20.9954 49.2376 20.9954C49.1757 20.9947 49.1145 21.0064 49.0577 21.0298C49.0009 21.0531 48.95 21.0875 48.9081 21.1308C48.8663 21.1741 48.8344 21.2253 48.8147 21.2811C48.7951 21.3369 48.7879 21.3959 48.7938 21.4545C48.7938 21.6917 48.8567 21.8621 49.2996 22.2104C49.8136 22.6102 50.0005 22.8255 50.0005 23.2475C50.0005 23.7884 49.4865 24.3292 48.6613 24.3292C47.9059 24.3292 47.6104 23.907 47.6104 23.6476C47.6129 23.5541 47.6531 23.4651 47.7226 23.3989C47.7921 23.3328 47.8857 23.2946 47.9839 23.2921C48.1098 23.2921 48.163 23.3586 48.2096 23.4922C48.2462 23.6431 48.3323 23.779 48.4555 23.8802C48.5787 23.9815 48.7326 24.0428 48.8948 24.0552C48.963 24.0578 49.031 24.0466 49.0943 24.0223C49.1576 23.9979 49.2147 23.961 49.2619 23.9141C49.309 23.8671 49.3451 23.8111 49.3677 23.7498C49.3903 23.6885 49.399 23.6234 49.3931 23.5587C49.3931 23.3293 49.2605 23.0696 48.8712 22.7501C48.513 22.4464 48.2254 22.2164 48.2254 21.8016C48.2254 21.2089 48.6846 20.7349 49.4632 20.7349C50.1173 20.7349 50.3445 21.1128 50.3445 21.3039" fill="white"/>
<path d="M53.5419 23.315C53.3728 23.6184 53.1208 23.8728 52.8125 24.0514C52.5042 24.23 52.151 24.3262 51.7901 24.33C51.3309 24.33 50.708 24.1521 50.708 23.1818C50.7129 22.5754 50.9263 21.9872 51.3155 21.5071C51.4977 21.2704 51.7355 21.0776 52.0099 20.9438C52.2843 20.8101 52.5878 20.7392 52.8961 20.7368C53.5036 20.7368 53.7683 21.0701 53.7683 21.4481C53.7683 22.4034 52.2188 22.6777 51.4634 22.7595C51.4558 22.811 51.4477 22.9814 51.4477 23.0186C51.4477 23.5594 51.6031 23.9742 52.1086 23.9742C52.6616 23.9742 53.0818 23.5444 53.3622 23.174L53.5419 23.315ZM53.106 21.3963C53.1125 21.3434 53.1069 21.2899 53.0898 21.2393C53.0727 21.1886 53.0443 21.1421 53.0067 21.1027C52.969 21.0634 52.923 21.0322 52.8716 21.0112C52.8202 20.9903 52.7647 20.98 52.7088 20.9812C52.1329 20.9812 51.611 21.6853 51.4864 22.5226C52.4284 22.3965 53.1057 22.0632 53.1057 21.3963" fill="white"/>
<path d="M57.9294 20.7446L57.1507 23.5747C57.0878 23.7897 57.0727 23.9455 57.2209 23.9455C57.4154 23.9455 57.7657 23.4714 57.9133 23.2121L58.0924 23.3318C57.8353 23.8502 57.3915 24.3318 56.8542 24.3318C56.4649 24.3318 56.3714 24.0353 56.5115 23.5612L56.7296 22.8353H56.7142C56.2704 23.6439 55.5386 24.3327 54.8301 24.3327C54.2463 24.3327 54.1839 23.8658 54.3397 23.3103L54.838 21.4805C54.9009 21.2657 54.9082 21.1621 54.7291 21.1471L54.2853 21.1172L54.324 20.9393L55.6711 20.7467L55.7101 20.7767L55.0092 23.3399C54.9003 23.74 54.9548 23.9326 55.1804 23.9326C55.7489 23.9326 56.4108 22.9919 56.7299 22.2882C56.94 21.8133 57.1169 21.3258 57.2593 20.8288L57.9294 20.7446Z" fill="white"/>
<path d="M58.7789 20.9369L60.1256 20.7443L60.1647 20.7814L59.7209 22.1668H59.7439C60.2421 21.3004 60.904 20.7371 61.5813 20.7371C62.095 20.7371 62.2423 21.1297 62.0176 21.7892L61.8917 22.1743H61.9146C62.444 21.278 63.0902 20.7368 63.7521 20.7368C64.3592 20.7368 64.4606 21.2181 64.2894 21.7592L63.7209 23.5666C63.6511 23.7813 63.6265 23.9371 63.7754 23.9371C63.9775 23.9371 64.3202 23.4552 64.4527 23.2111L64.6318 23.3309C64.3825 23.864 63.9775 24.3309 63.4248 24.3309C63.0512 24.3309 62.9032 24.064 63.0354 23.6268L63.6583 21.6116C63.7527 21.3079 63.6583 21.1303 63.4172 21.1303C62.8192 21.1303 62.1869 22.1081 61.9143 22.7083C61.6936 23.2068 61.5089 23.7191 61.3616 24.2416L60.7076 24.3231C60.9415 23.486 61.2137 22.5304 61.4397 21.6931C61.5656 21.2783 61.4473 21.1303 61.2295 21.1303C60.6377 21.1303 59.9601 22.1602 59.7033 22.7604C59.5028 23.2446 59.3312 23.7393 59.1893 24.2419L58.5283 24.3234L59.2837 21.4783C59.3467 21.2561 59.3618 21.1597 59.1827 21.145L58.7389 21.1151L58.7789 20.9369Z" fill="white"/>
</svg>
