<svg
  enable-background="new 0 0 1756 913.5"
  version="1.1"
  viewBox="0 0 1756 913.5"
  xmlns="http://www.w3.org/2000/svg"
><g><g
      fill="currentColor"
    ><path
        class="st5"
        d="m473.04 371.7s1.2-0.6 2.1-1.1c-2 0.3-3.9 0.7-6 0.9l3.9 0.2z"
      /><path
        class="st5"
        d="m1219 85.9c0.2-0.1 0.5-0.2 0.7-0.3 0 0-0.2 0.1-0.7 0.3z"
      /><path
        class="st5"
        d="m1753.6 542.3c-50.3-105.7-20.8-211.1-97.6-189.7-39.6-75.3-37.5-137.3-72.6-142.7 19.9-9.4 39.7-18.8 59.4-28.2 79.6-6.5-15.5-142.9-15.9-179.7-55.4 10.9-142.4 11.7-192.3 31 40 4.1-47.7 15-61.7 16.2-11.9 0-9-5.4-1.4-7 0.9-6.2-20.8 0.2-46.9 7.8-26 7.9-56.4 17.2-73.5 16.8 45.1 11.1-9.7 11.9-29.9 18.3 0.3-0.1 0.5-0.2 0.9-0.4-0.4 0.2-0.9 0.3-1.3 0.5-0.4 0.1-0.8 0.3-1.2 0.4h0.1c-0.8 0.3-1.5 0.6-2.3 0.9 0.7-0.3 1.2-0.5 1.5-0.7-0.6 0.2-1.1 0.4-1.5 0.7-129.3 51.2-253.7 88.3-374.6 129.6l-31.8-110c-5.8-0.1-12.6 0.2-17.2 0.3-2.2-8.6-4.2-17.7-6-27.2-85 28.9-169 64.8-247.7 109.1-134.6 46.9-266.7 95.6-387.9 136.5-60.7 36-139 79-139 79s-24.3 58.8-0.3 68.2c19.3 7.6 54.9 9 101.7 6.2-2.7 1.7-5.4 3.5-8.1 5.2 0 0 91.2 186.5 91.2 186.6 11-4.4 22-8.8 33.1-13.2-31.9 19-63.6 38.5-94.9 58.6 48.2 68.9 42.4 216.9 160.9 146.8 78.4-24.9 157.5-50.3 235.8-75.3 7.1 17.4 16.3 35.6 25 53.1l18.1 46.2c0.9-0.5 1.8-0.9 2.7-1.3 3.9 9.8 6.6 18.8 7.4 26.6 137.3-59.4 277.3-114.3 419.4-164 69.6 164.4-25.6 141.6 135.1 87.6 114-29.2 210.1-125.6 327.4-150.5 71.4-73.2 171.5-107 271.2-139.5 5-0.9 9.9-1.9 14.7-2.8zm-962.3-436.7c-0.9 0.3-1.8 0.6-2.7 0.8-0.9 0-0.2-0.3 2.7-0.8z"
      /></g><path
      class="text"
      d="m324.94 540.6c14-2.1 43.4-9.3 55.9-17.5l2.5-84.9c-12.7 14.8-27.2 25.1-45.2 27.9-23.5 3.6-43.5-12.5-43.5-37.4 0.1-24.6 19.2-47 42.6-50.6 17.7-2.7 33.3 5.4 46 15.7l-2.3-85.7c-16.3-3.5-34.9-4-52.6-1.2-63.2 9.7-112.9 70-112.8 135.9 0.1 64.5 47.9 107.2 109.4 97.8z"
    /><path
      class="text"
      d="m470.34 514.8v-72.5l1.4-0.2 34.4 67.2 90.4-13.8 118.5-18.2 83-12.7 6.4-29.1 59.2-9.1 7.1 27.1 83-12.7 77.3-11.8 0.3-154.7 43.2-4.5-0.1-73.4-164.8 25.2 0.1 73.4 43.2-8.7-0.3 151.3-75.6-211-86.7 13.3-56.4 178.1v-5.3l-68.4 10.5-0.2-22.1 60.4-9.2 0.1-58.8-60.4 9.2 0.2-21.6 66.1-10.1-0.1-61.7-145.1 22.2-0.3 209.8-36.5-51.7c-4.4-5.9-9.2-8.8-13.2-11.5v-1.8c29.1-14.6 41.8-31 41.9-65.1 0.1-57-41.2-72.2-89.9-64.8l-94.7 14.5-0.3 226 76.8-11.7zm362.7-206.2 2.9-0.4c1.4 9.4 2.6 19.1 4.9 28.3l9.1 38.5-31.5 4.8 14.6-71.2zm-362.3 41.9 6-0.9c13.5-2.1 25.2-1.8 25.2 15.6-0.1 16.8-12.9 20.9-25.8 22.8l-5.4 0.8v-38.3z"
    /><path
      class="text"
      d="m1162.5 187.6 81.6 208.8 66.4-10.2 80.1-228.1-0.3 215.9 147.4-22.5 0.2-61.8-68.4 10.5-0.2-22.1 60.4-9.2 0.1-58.8-60.4 9.2 0.2-21.6 66.1-10.1-0.1-61.7-141.4 21.6-81.8 12.5-28.7 107.2c-3.2 11.6-5.6 23-5.6 34.4l-1.7 0.3c0-11.4-2.2-22.1-5.3-32.8l-28.5-98.4-81.8 12.5-76.7 11.7-0.3 226 78.4-12 0.3-221.3z"
    /><path
      class="text"
      d="m427.54 535.1-24.2 92.4c-2.9 10-4.2 20.7-5.5 30.8l-2 0.3-29.8-114.1-80.7 12.3-35.2 231.4 75.8-11.6 9.3-97.9c0.9-9.1 1.6-18.5 1.9-27.6l2.6-0.4c0.6 9.5 2.8 18.2 5.1 27.4l27.7 91.3 45.8-7 31.5-106.1c2.1-7.5 3.5-15.5 4.9-23.2l1.4-0.2 10.5 122.2 75.8-11.6-35.2-220.6-79.7 12.2z"
    /><path
      class="text"
      d="m660.64 625.3c0.1 17.7-0.8 33.4-21.6 36.6-20.9 3.2-21.2-12.3-21.3-30l0.1-125.9-78.4 12v133.7c-0.2 66 39.2 89.9 99.6 80.7s100-45.3 100.1-111.2v-133.6l-78.4 12-0.1 125.7z"
    /><path
      class="text"
      d="m861.64 552.9-17.8-1.5c-6-0.6-15.6-0.3-15.7-8.7 0-9.3 9.9-13.5 16.8-14.6 16.9-2.6 32 2.6 45.5 10.1l21.4-61.1c-21.2-10.2-43.9-13.1-68.5-9.3-46.9 7.2-93.7 44.3-93.7 97.9-0.2 35.4 25.6 50.3 56.2 51.3l15.9 0.6c7.1 0.4 17.5-0.3 17.3 9.9 0.1 10.2-12.3 15.4-20 16.5-18 2.8-34.9-4-48.9-13.2l-3.9-2.7-24.2 67.5c24.2 9.2 55.8 12.1 82.9 8 46.6-7.1 93.6-41 93.8-95 0-38.1-23.9-53-57.1-55.7z"
    /><polygon
      class="text"
      points="1008.7 588.3 1069.1 579 1069.2 520.3 1008.8 529.5 1009 507.9 1075.1 497.8 1075 436.1 930.04 458.3 930.04 458.3 929.74 684.3 1077.1 661.7 1077.3 599.9 1008.9 610.4"
    /><path
      class="text"
      d="m1285.4 403.9-78.4 12-0.1 125.9c0.1 17.7-0.8 33.4-21.6 36.6-20.9 3.2-21.2-12.3-21.3-30l0.1-125.9-78.4 12-0.1 133.7c-0.2 66 39.2 89.9 99.6 80.7s100-45.3 100.1-111.2l0.1-133.8z"
    /><path
      class="text"
      d="m1540.9 364.8-79.8 12.2-24.2 92.4c-2.9 10-4.2 20.7-5.5 30.8l-2 0.3-29.8-114.1-80.7 12.3-35.2 231.3 75.8-11.6 9.3-97.9c0.9-9.1 1.6-18.5 1.9-27.6l2.6-0.4c0.6 9.5 2.8 18.2 5.1 27.4l27.7 91.3 45.8-7 31.5-106.1c2.1-7.5 3.5-15.5 4.9-23.2l1.4-0.2 10.5 122.2 75.8-11.6-35.1-220.5z"
    /></g></svg>
