<svg fill="none" version="1.1" viewBox="0 0 53 26" xmlns="http://www.w3.org/2000/svg"><g clip-path="url(#clip0_3152_37650)" fill="currentColor"><path d="m43.287 0.88654c-0.1357 0.012655-0.192 0.046624 0 0z"/><path d="m5.9394 9.2297 0.13568-0.09458c-0.0481 0.02736-0.09352 0.05902-0.13568 0.09458z"/><path d="m13.858 6.4183 0.031-0.18451c-0.0565 0.09126-0.0565 0.14588-0.031 0.18451z"/><path d="m26.586 9.2071c-0.0678-0.26976-0.1044-0.5535-0.1465-0.82726l-0.0875 0.01266-0.4518 2.0828 0.9572-0.1439-0.2714-1.1243z"/><path d="m16.265 10.083c0-0.50818-0.3568-0.51617-0.7665-0.45423l-0.1832 0.02731-0.0041 1.1216 0.1662-0.0246c0.3901-0.0586 0.7836-0.1792 0.7876-0.6701z"/><path id="background" d="m52.476 15.562c-0.1221 0-0.2863-4e-3 -0.4844 0l0.5848-0.1139-0.599-1.9202 0.0291-0.02 0.5278-0.1079-0.6451-2.0775-0.1418-0.0067-0.4152 0.1333-0.5759-1.8484-0.8344 0.39298-0.1357-0.29506c0.078-0.0473 0.1547-0.09525 0.234-0.14254l-1.5738-3.299c-0.0821 0.03663-0.1655 0.07327-0.2503 0.10923l-0.2714-0.57281c0.1502-0.06128 0.3021-0.12589 0.4559-0.19383 0.293-0.12722 0.6024-0.27775 0.9171-0.43228l0.2368-0.0333-0.0258-0.07394c0.1228-0.06327 0.249-0.12988 0.3738-0.19515l0.0679-0.03531 0.0678-0.03863 0.1547-0.08792 0.3107-0.1785-1.5942-4.5246c-0.365 0.051953-0.7354 0.1059-1.1099 0.15852l-0.0217-0.060613-0.1492 0.084592c-1.0115 0.13988-2.0481 0.26643-3.0717 0.30972-0.7083 0.24312-1.0807 0.35501-1.2483 0.39431 0.1357-0.012655 0.3514 0 0.4471 0.14786-0.2556 0.01838-0.5101 0.0495-0.7625 0.09326-0.2775 0.04862-0.5658 0.1059-0.8256 0.14986-0.2157 0.04127-0.4343 0.06577-0.654 0.07327-0.1628 0-0.2577-0.03197-0.2462-0.11989l0.2035-0.08127c0.0258-0.17584-0.6044 6e-3 -1.3649 0.22247-0.7571 0.22713-1.6417 0.49289-2.1416 0.47957l0.5996 0.21114-0.793 0.17518c-0.2646 0.05795-0.5291 0.11656-0.7917 0.1805 0.1357-0.05994 0.266-0.12255 0.4003-0.1805-1.6498 0.64675-3.0731 1.157-4.3878 1.5886-0.3283 0.10924-0.6503 0.21315-0.966 0.31172-0.3161 0.10058-0.6255 0.19983-0.9321 0.29374l-1.8025 0.55217c-1.0704 0.33304-2.1294 0.6714-3.2338 1.083l-0.9104-3.0912c-0.2781-4e-3 -0.4206-0.03997-0.3446-0.07993l-0.1194 0.03197-0.213-0.72069-0.8894 0.31439-0.445 0.15719-0.2232 0.07926c-0.0739 0.02664-0.1472 0.05662-0.2205 0.08526l-1.3262 0.51886-0.4369 0.18717-0.8751 0.37566c-0.2903 0.12922-0.5759 0.26643-0.8642 0.39964-0.5801 0.26244-1.1397 0.55684-1.7075 0.84125l-0.0102 0.00599c-0.3046 0.12256-0.6167 0.25378-0.9253 0.38233-0.6635 0.27309-1.2978 0.55084-1.7855 0.72468-0.4878 0.17384-0.8243 0.25244-0.8819 0.13787l-0.0075 0.04863c-2.803 0.61212-5.0804 2.1261-8.034 2.8861 0.03606-0.04571 0.0775-0.08707 0.12346-0.12322-1.736 1.2049-3.4597 2.4085-5.2235 3.5734 0.74622 0.3397 1.4999 0.6821 2.2543 1.0125 0.61823-0.06 1.2346-0.1219 1.8493-0.1859l-0.21301 0.1332 2.6572 5.3339 0.14382-0.0533-0.02171 0.0147-0.95448 0.6534-0.96737 0.6827 2.3336 4.9423c0.78104-0.2554 1.5655-0.5036 2.3533-0.7447l0.5902-0.1812 0.5841-0.1872 1.1688-0.3683 1.1669-0.361c0.3887-0.1192 0.7713-0.2451 1.1532-0.3657l2.2895-0.7153-0.1526 0.0892c0.0624-0.0219 0.1235-0.0453 0.1852-0.0666l1.179 2.9474h0.0068l0.2483 0.6207c2.7013-1.061 5.4549-2.206 8.2566-3.2923 1.2801-0.4956 2.5711-0.9791 3.8715-1.4354l1.2964 3.0899c0.918-0.1222 1.827-0.303 2.721-0.5415 0.9809-0.2565 2.0351-0.5868 3.1884-0.9758l0.0176 0.0366c0.2897-0.1412 0.2802-0.2131 0.7924-0.3803l-0.6784 0.2131-0.4226 0.1273-0.211 0.0632-0.2144 0.062c0.9165-0.5236 1.6356-1.0884 2.8126-1.7158 0.2713-0.0886 0.3975-0.0593 0.4525-0.0147 0.9572-0.5142 1.8933-1.027 2.822-1.5206 0.3277-0.0666 0.6553-0.1332 0.9803-0.1998 0.3948-0.2744 0.4328-0.4829 0.6784-0.7327 0.1721-0.1658 0.3714-0.302 0.5895-0.403 0.1762-0.0879 0.3574-0.1657 0.5427-0.2331 0.1085-0.0413 0.2259-0.0833 0.3541-0.1266 0.1282-0.0432 0.2673-0.0839 0.4179-0.1272-0.5088 0.01-0.249-0.1632 0.0963-0.3483 0.3453-0.1852 0.7734-0.3637 0.5943-0.3957 0.1357-4e-3 0.426-0.0379 0.6621-0.0586 0.6784-0.2777 1.6525-0.6461 2.5392-0.9232 0.1105-0.0379 0.2198-0.0666 0.3269-0.1005l0.3148-0.0946c0.1018-0.0333 0.2035-0.0586 0.2965-0.0853l0.2713-0.0792c0.1744-0.0553 0.3304-0.0926 0.4634-0.1332 0.1084-0.0321 0.2146-0.0708 0.3181-0.1159l-0.2462 6e-4zm-39.493-7.36 2.8845-0.43361c1.4816-0.22247 2.7373 0.2198 2.7291 1.885-0.0047 0.99907-0.3941 1.4787-1.2814 1.9097v0.0526c0.1527 0.0861 0.2882 0.199 0.3995 0.333l1.1051 1.5073 0.0292-6.1365 4.4203-0.66607-0.0041 1.805-2.0141 0.30239-0.0088 0.6321 1.8398-0.27642-0.0088 1.7184-1.8398 0.2765v0.648l2.084-0.313v0.1539l1.7373-5.2154 2.6416-0.39964 2.2814 6.1691 0.0265-4.426-1.3154 0.26044 0.0048-2.1467 5.02-0.75399-0.0048 2.1467-1.3167 0.13654-0.0271 4.5239-2.3533 0.3537-2.5284 0.3797-0.2123-0.7913-1.8052 0.2711-0.1967 0.8532-1.9612 0.2944-4.1761 0.6301-2.7543 0.4136-1.0379-1.9642-0.0434 0.0067-0.0088 2.1214-2.337 0.3477 0.0325-6.6094zm-5.442 4.1809c0.00339-1.9276 1.5209-3.6974 3.4476-3.9864 0.5316-0.08086 1.0736-0.07049 1.6016 0.03064l0.0604 2.5051c-0.386-0.3011-0.8602-0.5329-1.4002-0.4549-0.3578 0.0624-0.6828 0.244-0.9203 0.5142-0.2375 0.2701-0.37292 0.6124-0.38352 0.9691 0 0.7273 0.60582 1.1989 1.3208 1.089 0.5495-0.0826 0.9925-0.3856 1.3798-0.8206l-0.0861 2.4838c-0.3813 0.2411-1.2761 0.4542-1.7035 0.5182-1.8743 0.2817-3.3261-0.9631-3.3166-2.8481zm7.6108 9.1058-0.3066-3.5715-0.0434 6e-3c-0.0455 0.2258-0.0889 0.4603-0.1534 0.6801l-0.97 3.1065-1.3948 0.2099-0.8351-2.669c-0.0764-0.2611-0.1273-0.5287-0.1519-0.7993l-0.0781 0.0114c-0.0122 0.2664-0.0318 0.5395-0.0617 0.8066l-0.2944 2.8641-2.3099 0.345 1.0949-6.7693 2.4585-0.369 0.8948 3.3344 0.061-0.0094c0.035-0.3042 0.0924-0.6057 0.1716-0.9018l0.7463-2.7049 2.4306-0.3644 1.0488 6.4476-2.3072 0.347zm3.1301 3.8099-1.1452-2.8641 1.1377 2.8415h0.0061l0.0088 0.022-0.0074 6e-4zm5.1767-7.7557c-0.0122 1.9316-1.2211 2.9867-3.0602 3.2638-1.8391 0.277-3.0385-0.421-3.0249-2.3499l0.0156-3.9092 2.3886-0.3583-0.0156 3.6813c0 0.5169 0.0088 0.9711 0.6451 0.8752s0.6628-0.5548 0.6628-1.0717l0.0149-3.6813 2.3886-0.359-0.0149 3.9091zm2.6057 2.4118c-0.8284 0.1246-1.7869 0.0407-2.5243-0.2251l0.7462-1.9775 0.1194 0.0786c0.4254 0.2664 0.9375 0.4629 1.4863 0.3809 0.2354-0.0353 0.6106-0.1884 0.6106-0.4862 0-0.2977-0.3107-0.2777-0.5264-0.2891l-0.4844-0.0146c-0.9321-0.0267-1.7136-0.4609-1.7048-1.496 0.0055-1.5686 1.4321-2.6589 2.8621-2.8741 0.7496-0.1126 1.4402-0.032 2.0847 0.2664l-0.6553 1.7884c-0.4071-0.2191-0.8697-0.369-1.3839-0.2917-0.2097 0.032-0.5109 0.1559-0.5136 0.4276 0 0.2451 0.2958 0.2365 0.4749 0.2525l0.5427 0.0413c1.0115 0.0759 1.7394 0.5095 1.7353 1.6318-0.0156 1.5806-1.4483 2.5737-2.8695 2.7868zm7.6819-1.2588-4.4902 0.674 0.0319-6.6094 4.4204-0.666-0.0048 1.805-2.0134 0.3024-0.0088 0.6321 1.8397-0.2757-0.0088 1.7178-1.8384 0.2784v0.6481l2.084-0.3131-0.0116 1.8064zm0.2633-13.654 2.3363-0.34702 0.0468-0.00666h0.0061l2.4422-0.367 0.8581 2.8761c0.1003 0.30971 0.1535 0.63221 0.1581 0.95714l0.0522-0.00799c0.011-0.34189 0.0694-0.68072 0.1737-1.0071l0.8819-3.1378 2.3798-0.35701 4.4203-0.66607-0.0047 1.805-2.0135 0.30239-0.0088 0.6321 1.8398-0.27642-0.0088 1.7185-1.8398 0.27642v0.64809l2.084-0.31306-0.0129 1.8064-4.4902 0.6741 0.0305-6.3144-2.4625 6.68-2.0223 0.3038-2.4578-6.0999-0.0312 6.4735-2.3865 0.359 0.0292-6.612zm9.0503 3.0293c-0.1473 0.06661-0.4017 0.17585-0.7103 0.3044l0.5563-0.27709 0.154-0.02731zm-6.02 10.235c-1.8398 0.2764-3.0364-0.4196-3.0249-2.3485l0.0156-3.9092 2.392-0.3603-0.015 3.6813c0 0.5169 0.0082 0.9712 0.6445 0.8752 0.6363-0.0959 0.6594-0.5535 0.6594-1.0703l0.0156-3.6814 2.3886-0.359-0.0156 3.9092c-0.0143 1.9289-1.2211 2.9866-3.0602 3.263zm9.5991-1.5466-0.3066-3.5721-0.0435 0.0067c-0.0454 0.2257-0.0888 0.4602-0.1526 0.68l-0.9708 3.1066-1.3947 0.2091-0.8358-2.6689c-0.0762-0.2611-0.1268-0.5288-0.1512-0.7993l-0.0787 0.012c-0.0123 0.2664-0.0319 0.5388-0.0618 0.8066l-0.2937 2.8641-2.3099 0.345 1.0956-6.7699 2.4584-0.369 0.8941 3.3343 0.0611-0.0086c0.0353-0.3043 0.0926-0.6057 0.1716-0.9019l0.7462-2.7056 2.432-0.36498 1.0495 6.4476-2.3092 0.3483zm2.0073-5.6363 0.017-0.0586 0.8642-0.3463c-0.2998 0.1399-0.5935 0.2748-0.8812 0.4049z" stroke-width="1.0016"/><path d="m38.711 22.502 0.1547-0.0486c-0.057 0.0166-0.1079 0.0333-0.1547 0.0486z"/><path d="m24.783 2.8961 0.1418-0.0373c-0.0487 0.00632-0.0964 0.01886-0.1418 0.0373z"/><path d="m40.45 21.237-0.0638 0.0347c0.0685 0.1219 0.1405 0.0259 0.0638-0.0347z"/><path d="m47.316 17.464c0.1486-0.0413 0.3005-0.0779 0.4532-0.1065 0.1526-0.0287 0.3066-0.06 0.4579-0.1 0.2537-0.0919 0.3256-0.1332 0.2923-0.1538-0.0332-0.0207-0.1709-0.022-0.3391-0.0067-0.2558 0.1079-0.4749 0.1939-0.6248 0.2618l-0.2395 0.1052z"/><path d="m19.132 13.883-0.3121-0.4256-2e-3 0.4729 0.3141-0.0473z"/><path d="m23.308 13.256 0.0122-1.6525-0.5794 1.7371 0.5672-0.0846z"/><path d="m30.012 12.249-0.0351-0.0932v0.0985l0.0351-0.0053z"/><path d="m36.398 4.6844-0.0061 6.6e-4 -0.0461 0.00733 0.0516 0.12855 6e-4 -0.13654z"/><path d="m44.113 7.5652 0.388-0.20649c-0.367 0.1572-0.7387 0.32838-1.1139 0.50822l0.7259-0.30173z"/><path d="m43.46 3.6241-0.114 0.01666-0.0014 0.29573 0.1154-0.31239z"/></g><defs><clipPath id="clip0_3152_37650"><rect transform="translate(.71777)" width="52" height="26" fill="#fff"/></clipPath></defs></svg>
