<svg
  id="svg1250"
  enable-background="new 0 0 1333.2 973.9"
  version="1.1"
  viewBox="0 0 1333.2 973.9"
  xmlns="http://www.w3.org/2000/svg"
><g id="CM_x5F_Wortmarke"><g id="g1247"><g
        id="g1212"
        fill="#fff"
      ><g id="g1176"><rect
            id="rect1158"
            class="st0"
            x="230.3"
            y="873.09"
            width="38.67"
            height="96.11"
          /><polyline
            id="polyline1160"
            class="st0"
            points="63.72 787.57 63.72 969.19 100.14 969.19 100.14 813.46 148.64 969.19 180.79 969.19 211.32 873.1 180.37 873.1 165.72 919.72 127.31 787.57"
          /><path
            id="path1162"
            class="st0"
            d="m383.29 906.41c0 21.6 0 39.44-23.88 39.44-19.84 0-19.84-16.84-19.84-27.9v-44.86h-37.67v48.14c0 6.27 0 23.88 8.27 34.17 7.04 9.29 21.12 17.08 38.19 17.08 24.13 0 33.66-14.57 37.43-20.09l1.26 16.82h36.18c-0.49-3.51-0.75-5.77-1.02-9.29 0-3.27-0.24-6.53-0.75-33.91v-52.91h-38.18"
          /><path
            id="path1164"
            class="st0"
            d="m450.5 879.01c0 25.89 21.85 32.16 32.18 35.17l23.11 6.29c14.56 4 17.56 8.55 17.56 14.33 0 7.54-6.27 15.07-19.58 15.07-15.58 0-20.6-9.32-21.08-17.35h-34.94c0.26 6.05 1.02 16.09 9.3 24.88 11.56 12.05 27.12 15.56 43.44 15.56 39.47 0 58.29-21.84 58.29-43.68 0-17.35-10.8-29.16-33.9-35.43l-22.88-6.31c-11.04-2.98-17.33-4.74-17.33-13.31 0-0.4 0.11-0.75 0.14-1.15h-33.8c-0.32 1.92-0.51 3.88-0.51 5.93"
          /><path
            id="path1166"
            class="st0"
            d="m660.35 891.83h-45.98c0.35-6.98 2.11-13.6 5.49-18.72h-35.73c-5.01 11.54-6.69 24.13-6.69 35.54 0 20.37 4.77 37.44 16.33 49.51 13.33 13.81 33.93 15.82 44.72 15.82 18.61 0 35.18-5.01 44.48-14.81 10.29-10.82 11.54-21.61 12.05-27.64h-33.9c-3.53 14.06-12.83 17.6-22.12 17.6-25.89 0-25.89-25.66-25.89-33.95h85.18c0.46-9.66 0.83-26.06-5.67-42.07h-36.42c3.99 6.87 4.15 15.47 4.15 18.72"
          /><path
            id="path1168"
            class="st0"
            d="m804.2 906.41c0 21.6 0 39.44-23.86 39.44-19.85 0-19.85-16.84-19.85-27.9v-44.86h-37.69v48.14c0 6.27 0 23.88 8.3 34.17 7.04 9.29 21.12 17.08 38.19 17.08 24.13 0 33.68-14.57 37.41-20.09l1.26 16.82h36.2c-0.49-3.51-0.75-5.77-1.01-9.29 0-3.27-0.26-6.53-0.77-33.91v-52.91h-38.18"
          /><path
            id="path1170"
            class="st0"
            d="m876.96 969.2h37.43v-74.61c0-5.24 0-14.86 5.46-21.5h-42.88"
          /><path
            id="path1172"
            class="st0"
            d="m1040.2 894.59v74.61h37.44v-71.6c0-7.17 0.16-16.1-1.53-24.5h-40.84c4.16 5.63 4.93 13.77 4.93 21.49"
          /><path
            id="path1174"
            class="st0"
            d="m958.6 893.84v75.36h37.43v-63.57c0-12.04 0.27-24.84 6.27-32.53h-48.33c4.44 6.14 4.63 14.87 4.63 20.74"
          /></g><g id="g1210"><polygon
            id="polygon1178"
            class="st0"
            points="65.99 400.81 179.16 400.81 179.16 369.89 105.68 369.89 105.68 219.41 65.99 219.41"
          /><path
            id="path1180"
            class="st0"
            d="m299.42 286.49c-12.56-14.56-34.67-16.33-45.23-16.33-12.05 0-26.88 2.01-38.43 10.31-13.3 9.54-14.06 23.11-14.32 29.89h36.44c0-3.02 0-7.06 2.76-11.3 3.26-4.8 8.79-7.05 14.08-7.05 3.5 0 13.29 1.26 16.57 10.55 1.5 4.51 1.76 8.55 1.76 16.84-12.32 0-34.66 0-50.24 7.03-22.93 10.6-26.73 28.7-26.86 38.88h36.55c-0.24-1.25-0.4-2.49-0.4-3.7 0-15.07 17.09-22.6 40.95-20.59 0 9.82-0.3 17.64-2.92 24.29h38.34l-0.24-47.67c-0.02-5.77-0.27-20.85-8.81-31.15z"
          /><path
            id="path1182"
            class="st0"
            d="m418.06 270.42c-27.63 0-37.68 16.31-41.19 22.1l-1-19.09h-35.67c0.77 8.79 0.77 22.6 0.77 23.09v68.79h37.43v-38.88c0-9.8 2.25-16.07 4.52-19.36 4.01-6.02 11.32-9.78 19.36-9.78 9.53 0 15.32 5.27 18.07 10.79 2.01 4.03 2.01 8.55 2.01 13.83v43.4h37.94v-33.1c0-23.6-0.77-30.13-3.51-37.94-3.29-8.78-13.84-23.85-38.73-23.85z"
          /><path
            id="path1184"
            class="st0"
            d="m578.08 289.51c-3.26-4.51-12.8-17.33-35.67-17.33-33.16 0-56 26.12-56 68.07 0 9.29 1.13 17.66 3.24 25.04h39.47c-3.45-7.14-5.04-16.3-5.04-26.05 0-12.8 2.78-42.69 27.64-42.69 16.82 0 27.63 13.55 27.63 38.42 0 6.28-0.5 19.38-6.02 29.91-0.08 0.16-0.19 0.27-0.26 0.42h42.47v-145.89h-37.46z"
          /><path
            id="path1186"
            class="st0"
            d="m704.43 269.66c-13.82 0-25.87 4.04-35.67 10.57-21.37 14.81-26.38 39.44-26.38 60.03 0 9.08 1.02 17.42 3.08 25.04h35.24c-2.62-7.02-2.65-14.65-2.65-18.51h85.16c0.5-10.54 1.02-29.15-7.53-46.48-11.54-23.6-33.16-30.65-51.25-30.65zm-25.12 53.76c0.75-14.83 7.53-28.39 23.86-28.39 21.61 0 22.1 22.6 22.1 28.39z"
          /><path
            id="path1188"
            class="st0"
            d="m858.21 325.43-22.85-6.28c-11.06-3.01-17.33-4.76-17.33-13.3 0-7.81 7.53-12.57 17.59-12.57 5.76 0 17.08 0.99 18.07 15.08h33.91c-0.99-25.37-22.09-37.42-48.21-37.42-32.92 0-55.52 15.07-55.52 39.65 0 25.89 21.87 32.19 32.18 35.21l23.11 6.27c13.63 3.76 17.11 7.98 17.51 13.25h35c0.19-1.5 0.48-2.95 0.48-4.46-0.03-17.33-10.83-29.16-33.94-35.43z"
          /><path
            id="path1190"
            class="st0"
            d="m207.44 134.51c0-26.64-17.08-42.45-39.96-47.24v-0.49c18.1-6.05 31.92-19.85 31.92-39.69 0-35.41-33.17-48.98-65.56-46.95h-68.1v181.37h68.58c27.89 1.98 73.12-11.08 73.12-47zm-102.77-104.24h30.4c16.33 0 25.36 6.78 25.36 21.32 0 14.59-9.03 21.34-25.36 21.34h-30.4v-42.66zm0 72.83h30.4c18.35 0 30.9 3.27 30.9 24.13 0 20.83-12.55 24.12-30.9 24.12h-30.4z"
          /><path
            id="path1192"
            class="st0"
            d="m253.26 107.14c-22.87 9.77-26.89 31.15-26.89 39.93 0 24.64 17.59 38.19 41.21 38.19 17.09 0 30.15-6.02 38.7-20.59h0.48c0 5.27 0.51 11.03 1.26 16.82h33.92c-0.5-3.77-1.5-7.53-1.76-13.81v-68.84c0-37.94-28.38-47.23-53.77-47.23-13.55 0-26.88 1.99-37.17 8.04-10.04 5.78-16.82 15.56-17.08 31.41h36.16c-0.49-5.79 3.77-18.08 16.84-18.08 13.31 0 17.33 10.26 17.33 15.56v11.81c-15.07-0.51-34.16 0.23-49.23 6.79zm27.66 52.98c-10.57 0-18.35-7.53-18.35-18.08 0-20.32 26.88-20.09 39.93-19.82 0 14.81-0.75 37.9-21.58 37.9z"
          /><path
            id="path1194"
            class="st0"
            d="m419.39 185.26c16.31 0 30.39-6.78 38.69-21.61h0.51c0 6.05 0.48 11.79 0.99 17.84h37.68c-0.51-8.3-1.26-16.84-1.26-25.11v-156.26h-37.67v69.83h-0.51c-7.05-10.55-20.59-18.35-33.64-18.35-39.21 0-59.05 32.94-59.05 66.86 0 32.36 17.33 66.8 54.26 66.8zm11.81-108.53c20.35 0 27.13 24.36 27.13 41.72 0 17.3-6.78 41.69-27.13 41.69-24.12 0-27.13-22.36-27.13-41.69 0-19.37 3.01-41.72 27.13-41.72z"
          /><rect
            id="rect1196"
            class="st0"
            x="526.78"
            y="55.36"
            width="37.68"
            height="126.12"
          /><rect
            id="rect1198"
            class="st0"
            x="525.52"
            y=".13"
            width="40.2"
            height="32.38"
          /><path
            id="path1200"
            class="st0"
            d="m644.73 160.12c-11.06 0-19.85-5.51-20.6-15.31h-34.93c0.51 28.89 26.14 40.44 55.53 40.44 23.36 0 57.02-13.82 57.02-41.46 0-47.23-72.11-35.93-72.11-55.76 0-8.31 4.77-11.3 15.08-11.3 8.54 0 16.57 3.77 17.08 12.3h33.91c-1.77-27.9-24.37-37.44-50.99-37.44-22.12 0-54.03 11.57-54.03 37.94 0 29.4 22.36 34.65 46.48 40.46 7.55 1.77 25.63 6.02 25.63 16.07 0.01 9.79-7.78 14.06-18.07 14.06z"
          /><path
            id="path1202"
            class="st0"
            d="m829.77 135.5h-36.68c-0.25 10.33-4.52 24.64-19.09 24.64-16.09 0-16.34-31.92-17.35-43.46 0.51-9.82 0.75-39.95 16.84-39.95 14.57 0 18.83 12.56 19.09 22.84h37.19c0.24-29.62-23.62-47.97-55.77-47.97-37.44 0-56.29 33.42-56.29 66.84 0 33.39 18.85 66.81 56.29 66.81 34.65-0.01 54.51-17.58 55.77-49.75z"
          /><path
            id="path1204"
            class="st0"
            d="m930.97 51.6c-19.09 0-30.91 7.55-38.7 19.09l-0.51-0.48v-70.09h-37.43v181.37h37.68v-75.89c0.51-18.34 10.8-28.87 22.6-28.87 18.59 0 22.38 15.32 22.63 28.87v75.89h37.68v-82.16c0-4.28-0.51-12.3-2.51-20.09-4.52-18.36-28.9-27.64-41.44-27.64z"
          /><path
            id="path1206"
            class="st0"
            d="m1116.9 104.34c-1.02-8.03-2.76-15.56-6.27-22.58-10.56-22.1-30.18-30.16-53.8-30.16-38.42 0-60.5 29.14-60.5 67.1 0 42.2 17.32 66.55 60.5 66.55 29.41 0 53.8-10.29 57.06-41.45h-33.91c-3.51 11.57-10.04 16.34-23.14 16.34-19.33 0-21.58-15.34-21.58-31.66h82.64c-0.01-8.29-0.01-16.35-1-24.14zm-81.65-1c0.51-13.81 4.28-26.61 21.58-26.61 18.35 0 22.14 12.8 22.14 26.61z"
          /><path
            id="path1208"
            class="st0"
            d="m1175.5 88.03c0-8.31 4.77-11.3 15.08-11.3 8.54 0 16.57 3.77 17.08 12.3h33.91c-1.76-27.9-24.37-37.44-50.99-37.44-22.12 0-54.03 11.57-54.03 37.94 0 29.4 22.36 34.65 46.48 40.46 7.55 1.77 25.63 6.02 25.63 16.07 0 9.78-7.79 14.06-18.08 14.06-11.06 0-19.87-5.51-20.6-15.31h-34.94c0.51 28.89 26.14 40.44 55.54 40.44 23.35 0 57.01-13.82 57.01-41.46 0-47.22-72.09-35.92-72.09-55.76z"
          /></g></g><g id="g1245"><g
          id="CM_Brush_00000166669890753620611250000007625293566123248540_"
          fill="currentColor"
        ><g id="g1222" fill="currentColor"><path
              id="path1214"
              class="st5"
              d="m358.37 501.37s0.91-0.46 1.6-0.84c-1.52 0.23-2.97 0.53-4.57 0.69l2.97 0.15z"
            /><g id="g1220"><path
                id="path1216"
                class="st5"
                d="m926.19 283.84c0.15-0.08 0.38-0.15 0.53-0.23 0 0-0.15 0.07-0.53 0.23z"
              /><path
                id="path1218"
                class="st5"
                d="m1333.1 631.23c-38.29-80.45-15.83-160.68-74.29-144.39-30.14-57.31-28.54-104.51-55.26-108.62 15.15-7.15 30.22-14.31 45.21-21.46 60.59-4.95-11.8-108.77-12.1-136.78-42.17 8.3-108.39 8.91-146.37 23.6 30.45 3.12-36.31 11.42-46.96 12.33-9.06 0-6.85-4.11-1.07-5.33 0.69-4.72-15.83 0.15-35.7 5.94-19.79 6.01-42.93 13.09-55.94 12.79 34.33 8.45-7.38 9.06-22.76 13.93 0.23-0.08 0.38-0.15 0.69-0.3-0.3 0.15-0.69 0.23-0.99 0.38-0.3 0.08-0.61 0.23-0.91 0.3h0.08c-0.61 0.23-1.14 0.46-1.75 0.69 0.53-0.23 0.91-0.38 1.14-0.53-0.46 0.15-0.84 0.3-1.14 0.53-98.42 38.97-193.1 67.21-285.13 98.65l-24.2-83.73c-4.41-0.08-9.59 0.15-13.09 0.23-1.67-6.55-3.2-13.47-4.57-20.7-64.7 22-128.63 49.32-188.54 83.04-102.45 35.7-203 72.77-295.25 103.9-46.2 27.4-105.8 60.13-105.8 60.13s-18.5 44.76-0.23 51.91c14.69 5.78 41.79 6.85 77.41 4.72-2.06 1.29-4.11 2.66-6.17 3.96 0 0 69.42 141.96 69.42 142.03 8.37-3.35 16.75-6.7 25.19-10.05-24.28 14.46-48.41 29.3-72.23 44.6 36.69 52.44 32.27 165.09 122.47 111.74 59.67-18.95 119.88-38.29 179.48-57.31 5.4 13.24 12.41 27.1 19.03 40.42l13.78 35.17c0.69-0.38 1.37-0.69 2.06-0.99 2.97 7.46 5.02 14.31 5.63 20.25 104.51-45.21 211.07-87 319.23-124.83 52.98 125.13-19.49 107.78 102.83 66.68 86.77-22.23 159.92-95.6 249.2-114.55 54.35-55.72 130.54-81.44 206.42-106.18 3.8-0.73 7.53-1.49 11.18-2.17zm-732.46-332.4c-0.69 0.23-1.37 0.46-2.06 0.61-0.68 0-0.14-0.23 2.06-0.61z"
              /></g></g></g><g id="g1243"><path
            id="path1225"
            class="st2"
            d="m245.64 629.93c10.66-1.6 33.03-7.08 42.55-13.32l1.9-64.62c-9.67 11.27-20.7 19.1-34.4 21.24-17.89 2.74-33.11-9.51-33.11-28.47 0.08-18.72 14.61-35.77 32.43-38.51 13.47-2.06 25.35 4.11 35.01 11.95l-1.75-65.23c-12.41-2.66-26.56-3.04-40.04-0.91-48.1 7.38-85.93 53.28-85.86 103.44 0.08 49.09 36.46 81.59 83.27 74.43z"
          /><path
            id="path1227"
            class="st2"
            d="m356.31 610.29v-55.18l1.07-0.15 26.18 51.15 68.81-10.5 90.2-13.85 63.18-9.67 4.87-22.15 45.06-6.93 5.4 20.63 63.18-9.67 58.84-8.98 0.23-117.75 32.88-3.43-0.08-55.87-125.44 19.18 0.08 55.87 32.88-6.62-0.23 115.16-57.54-160.6-65.99 10.12-42.93 135.56v-4.03l-52.06 7.99-0.15-16.82 45.97-7 0.08-44.76-45.97 7 0.15-16.44 50.31-7.69-0.08-46.96-110.44 16.9-0.23 159.69-27.78-39.35c-3.35-4.49-7-6.7-10.05-8.75v-1.37c22.15-11.11 31.82-23.6 31.89-49.55 0.08-43.39-31.36-54.96-68.43-49.32l-72.08 11.04-0.23 172.02 58.45-8.92zm276.07-156.95 2.21-0.3c1.07 7.15 1.98 14.54 3.73 21.54l6.93 29.3-23.98 3.65 11.11-54.19zm-275.76 31.9 4.57-0.69c10.28-1.6 19.18-1.37 19.18 11.87-0.08 12.79-9.82 15.91-19.64 17.35l-4.11 0.61v-29.14z"
          /><path
            id="path1229"
            class="st2"
            d="m883.18 361.24 62.11 158.93 50.54-7.76 60.97-173.62-0.23 164.33 112.2-17.12 0.15-47.04-52.06 7.99-0.15-16.82 45.97-7 0.08-44.76-45.97 7 0.15-16.44 50.31-7.69-0.08-46.96-169.89 25.95-21.85 81.6c-2.44 8.83-4.26 17.51-4.26 26.18l-1.29 0.23c0-8.68-1.67-16.82-4.03-24.97l-21.69-74.9-62.26 9.51-58.38 8.91-0.23 172.02 59.67-9.13 0.22-168.44z"
          /><path
            id="path1231"
            class="st2"
            d="m323.74 625.75-18.42 70.33c-2.21 7.61-3.2 15.76-4.19 23.44l-1.52 0.23-22.68-86.85-61.43 9.36-26.79 176.13 57.7-8.83 7.08-74.52c0.69-6.93 1.22-14.08 1.45-21.01l1.98-0.3c0.46 7.23 2.13 13.85 3.88 20.86l21.08 69.49 34.86-5.33 23.97-80.75c1.6-5.71 2.66-11.8 3.73-17.66l1.07-0.15 7.99 93.01 57.7-8.83-26.8-167.91-60.66 9.29z"
          /><path
            id="path1233"
            class="st2"
            d="m501.16 694.4c0.08 13.47-0.61 25.42-16.44 27.86-15.91 2.44-16.14-9.36-16.21-22.83l0.08-95.83-59.67 9.13v101.77c-0.15 50.24 29.84 68.43 75.81 61.43s76.12-34.48 76.19-84.64v-101.7l-59.67 9.13-0.09 95.68z"
          /><path
            id="path1235"
            class="st2"
            d="m654.15 639.29-13.55-1.14c-4.57-0.46-11.87-0.23-11.95-6.62 0-7.08 7.54-10.28 12.79-11.11 12.86-1.98 24.36 1.98 34.63 7.69l16.29-46.51c-16.14-7.76-33.41-9.97-52.14-7.08-35.7 5.48-71.32 33.72-71.32 74.52-0.15 26.94 19.49 38.29 42.78 39.05l12.1 0.46c5.4 0.3 13.32-0.23 13.17 7.54 0.08 7.76-9.36 11.72-15.22 12.56-13.7 2.13-26.56-3.04-37.22-10.05l-2.97-2.06-18.42 51.38c18.42 7 42.47 9.21 63.1 6.09 35.47-5.4 71.24-31.21 71.4-72.31-0.01-29.01-18.2-40.35-43.47-42.41z"
          /><polygon
            id="polygon1237"
            class="st2"
            points="766.12 666.24 812.09 659.16 812.17 614.48 766.19 621.48 766.35 605.04 816.66 597.35 816.58 550.39 706.21 567.29 706.21 567.29 705.99 739.31 818.18 722.11 818.33 675.07 766.27 683.06"
          /><path
            id="path1239"
            class="st2"
            d="m976.73 525.88-59.67 9.13-0.08 95.83c0.08 13.47-0.61 25.42-16.44 27.86-15.91 2.44-16.14-9.36-16.21-22.83l0.08-95.83-59.67 9.13-0.08 101.77c-0.15 50.24 29.84 68.43 75.81 61.43s76.12-34.48 76.19-84.64l0.07-101.85z"
          /><path
            id="path1241"
            class="st2"
            d="m1171.2 496.12-60.74 9.29-18.42 70.33c-2.21 7.61-3.2 15.76-4.19 23.44l-1.52 0.23-22.68-86.85-61.43 9.36-26.79 176.05 57.7-8.83 7.08-74.52c0.69-6.93 1.22-14.08 1.45-21.01l1.98-0.3c0.46 7.23 2.13 13.85 3.88 20.86l21.08 69.49 34.86-5.33 23.98-80.76c1.6-5.71 2.66-11.8 3.73-17.66l1.07-0.15 7.99 93.01 57.7-8.83-26.73-167.82z"
          /></g></g></g></g></svg>
