<svg width="24" height="25" viewBox="0 0 24 25" fill="none" xmlns="http://www.w3.org/2000/svg">
<path d="M4.20014 21.041H20.3116C20.4469 21.0311 20.5735 20.9704 20.6658 20.871C20.7582 20.7717 20.8096 20.641 20.8096 20.5053C20.8096 20.3696 20.7582 20.239 20.6658 20.1396C20.5735 20.0402 20.4469 19.9795 20.3116 19.9696H4.20014C4.06482 19.9795 3.93826 20.0402 3.84588 20.1396C3.7535 20.239 3.70215 20.3696 3.70215 20.5053C3.70215 20.641 3.7535 20.7717 3.84588 20.871C3.93826 20.9704 4.06482 21.0311 4.20014 21.041Z" fill="white"/>
<path d="M21.2602 21.8496H2.74018C2.60486 21.8595 2.47829 21.9202 2.38591 22.0196C2.29354 22.119 2.24219 22.2496 2.24219 22.3853C2.24219 22.521 2.29354 22.6517 2.38591 22.751C2.47829 22.8504 2.60486 22.9112 2.74018 22.921H21.2602C21.3955 22.9112 21.5221 22.8504 21.6144 22.751C21.7068 22.6517 21.7582 22.521 21.7582 22.3853C21.7582 22.2496 21.7068 22.119 21.6144 22.0196C21.5221 21.9202 21.3955 21.8595 21.2602 21.8496Z" fill="white"/>
<path d="M20.0511 7.01814H4.82541C4.5397 7.01814 4.27684 7.03243 4.00541 7.01814C3.95113 7.01814 3.8397 6.99528 3.8397 6.99528C3.8397 6.99528 3.79684 7.01243 3.8997 6.94671C3.93113 6.92671 3.96827 6.91243 4.00256 6.89528C5.09398 6.32386 6.19113 5.77243 7.28827 5.21243L11.3397 3.14957L11.8226 2.90386C11.9483 2.83814 11.9997 2.82671 12.054 2.841C12.3607 2.96057 12.6546 3.11086 12.9311 3.28957L17.1168 5.43528L19.0997 6.44957C19.4355 6.6006 19.7636 6.76843 20.0826 6.95243C20.1883 7.021 20.2197 7.02386 20.0511 7.03243C19.3654 7.06957 19.3626 8.141 20.0511 8.10386C20.6768 8.06957 21.2654 7.62957 21.234 6.961C21.225 6.76112 21.1628 6.56727 21.0538 6.39949C20.9448 6.23172 20.793 6.09611 20.614 6.00671C20.2368 5.79528 19.8426 5.60957 19.4711 5.41528L14.8997 3.07528L13.0654 2.14386C12.5254 1.85814 12.034 1.60671 11.4054 1.90385C10.4083 2.37528 9.42827 2.91243 8.44827 3.41528L4.07398 5.65528C3.7049 5.79987 3.36073 6.00136 3.05398 6.25243C2.95867 6.35851 2.8853 6.48243 2.83813 6.61702C2.79096 6.75161 2.77091 6.89422 2.77915 7.0366C2.78738 7.17898 2.82373 7.31832 2.88611 7.44658C2.94848 7.57483 3.03564 7.68946 3.14256 7.78385C3.38104 7.98755 3.68614 8.09637 3.9997 8.08957C6.57113 8.161 9.14256 8.08957 11.6883 8.08957H20.0597C20.195 8.07865 20.3211 8.01693 20.4128 7.91681C20.5044 7.81669 20.5547 7.68559 20.5536 7.54987C20.5525 7.41415 20.5001 7.28387 20.4069 7.18523C20.3137 7.08659 20.1866 7.02689 20.0511 7.01814Z" fill="white"/>
<path d="M5.23438 9.02387V18.6239C5.23879 18.7639 5.29715 18.8967 5.39725 18.9947C5.49736 19.0927 5.63146 19.1482 5.77152 19.1496H8.91438C9.05588 19.1474 9.19091 19.09 9.29071 18.9896C9.39051 18.8893 9.44719 18.754 9.44866 18.6124V9.02387C9.43877 8.88855 9.37804 8.76199 9.27866 8.66961C9.17928 8.57723 9.04863 8.52588 8.91295 8.52588C8.77726 8.52588 8.64661 8.57723 8.54723 8.66961C8.44786 8.76199 8.38712 8.88855 8.37723 9.02387V18.6239L8.91438 18.0896H5.77152L6.3058 18.6239V9.02387C6.29591 8.88855 6.23518 8.76199 6.1358 8.66961C6.03643 8.57723 5.90577 8.52588 5.77009 8.52588C5.63441 8.52588 5.50375 8.57723 5.40438 8.66961C5.305 8.76199 5.24426 8.88855 5.23438 9.02387Z" fill="white"/>
<path d="M11.5431 9.02387V18.6239L12.0774 18.0896H8.93452C8.7992 18.0995 8.67263 18.1602 8.58025 18.2596C8.48787 18.359 8.43652 18.4896 8.43652 18.6253C8.43652 18.761 8.48787 18.8916 8.58025 18.991C8.67263 19.0904 8.7992 19.1511 8.93452 19.161H12.0774C12.2194 19.1595 12.3551 19.1025 12.4555 19.002C12.556 18.9016 12.613 18.7659 12.6145 18.6239V9.02387C12.6046 8.88855 12.5439 8.76199 12.4445 8.66961C12.3451 8.57723 12.2145 8.52588 12.0788 8.52588C11.9431 8.52588 11.8125 8.57723 11.7131 8.66961C11.6137 8.76199 11.553 8.88855 11.5431 9.02387Z" fill="white"/>
<path d="M14.6945 9.02387V18.6239L15.2317 18.0896H12.0888C11.9535 18.0995 11.8269 18.1602 11.7345 18.2596C11.6422 18.359 11.5908 18.4896 11.5908 18.6253C11.5908 18.761 11.6422 18.8916 11.7345 18.991C11.8269 19.0904 11.9535 19.1511 12.0888 19.161H15.2317C15.3732 19.1588 15.5082 19.1014 15.608 19.0011C15.7078 18.9007 15.7645 18.7654 15.766 18.6239V9.02387C15.7561 8.88855 15.6953 8.76199 15.596 8.66961C15.4966 8.57723 15.3659 8.52588 15.2302 8.52588C15.0946 8.52588 14.9639 8.57723 14.8645 8.66961C14.7652 8.76199 14.7044 8.88855 14.6945 9.02387Z" fill="white"/>
<path d="M17.8488 9.02387V18.6239L18.383 18.0896H15.2402C15.1049 18.0995 14.9783 18.1602 14.8859 18.2596C14.7935 18.359 14.7422 18.4896 14.7422 18.6253C14.7422 18.761 14.7935 18.8916 14.8859 18.991C14.9783 19.0904 15.1049 19.1511 15.2402 19.161H18.383C18.525 19.1595 18.6608 19.1025 18.7612 19.002C18.8616 18.9016 18.9187 18.7659 18.9202 18.6239V9.02387C18.9103 8.88855 18.8496 8.76199 18.7502 8.66961C18.6508 8.57723 18.5202 8.52588 18.3845 8.52588C18.2488 8.52588 18.1181 8.57723 18.0188 8.66961C17.9194 8.76199 17.8586 8.88855 17.8488 9.02387Z" fill="white"/>
</svg>
