<svg width="25" height="24" viewBox="0 0 25 24" fill="none" xmlns="http://www.w3.org/2000/svg">
<path d="M18.9756 8.78406V10.9043C18.9748 12.5221 18.3318 14.0733 17.1879 15.2172C16.0439 16.3612 14.4927 17.0042 12.8749 17.005V17.005C11.2566 17.005 9.70457 16.3624 8.55998 15.2183C7.41538 14.0743 6.77194 12.5226 6.77112 10.9043V8.78406" stroke="white" stroke-miterlimit="10" stroke-linecap="round"/>
<path d="M12.8749 1.16663H12.8718C11.1248 1.16663 9.7085 2.5829 9.7085 4.32996V10.7371C9.7085 12.4842 11.1248 13.9004 12.8718 13.9004H12.8749C14.622 13.9004 16.0383 12.4842 16.0383 10.7371V4.32996C16.0383 2.5829 14.622 1.16663 12.8749 1.16663Z" stroke="white" stroke-miterlimit="10" stroke-linecap="round"/>
<path d="M12.8749 17.005V22.8333" stroke="white" stroke-miterlimit="10" stroke-linecap="round"/>
<path d="M10.2811 22.8334H15.4657" stroke="white" stroke-miterlimit="10" stroke-linecap="round"/>
</svg>
