<svg width="25" height="25" viewBox="0 0 25 25" fill="none" xmlns="http://www.w3.org/2000/svg">
<g clip-path="url(#clip0_3933_21369)">
<path d="M21.4346 2.37143H3.46317C2.83199 2.37143 2.32031 2.8831 2.32031 3.51429V21.4857C2.32031 22.1169 2.83199 22.6286 3.46317 22.6286H21.4346C22.0658 22.6286 22.5775 22.1169 22.5775 21.4857V3.51429C22.5775 2.8831 22.0658 2.37143 21.4346 2.37143Z" stroke="white" stroke-miterlimit="10" stroke-linecap="round"/>
<path d="M7.79281 11.7771H6.70424C6.38865 11.7771 6.13281 12.033 6.13281 12.3486V19.7628C6.13281 20.0784 6.38865 20.3343 6.70424 20.3343H7.79281C8.1084 20.3343 8.36424 20.0784 8.36424 19.7628V12.3486C8.36424 12.033 8.1084 11.7771 7.79281 11.7771Z" stroke="white" stroke-miterlimit="10" stroke-linecap="round"/>
<path d="M12.9627 6.49142H11.8742C11.5586 6.49142 11.3027 6.74726 11.3027 7.06285V19.76C11.3027 20.0756 11.5586 20.3314 11.8742 20.3314H12.9627C13.2783 20.3314 13.5342 20.0756 13.5342 19.76V7.06285C13.5342 6.74726 13.2783 6.49142 12.9627 6.49142Z" stroke="white" stroke-miterlimit="10" stroke-linecap="round"/>
<path d="M18.1385 9.82001H17.0499C16.7344 9.82001 16.4785 10.0758 16.4785 10.3914V19.76C16.4785 20.0756 16.7344 20.3314 17.0499 20.3314H18.1385C18.4541 20.3314 18.7099 20.0756 18.7099 19.76V10.3914C18.7099 10.0758 18.4541 9.82001 18.1385 9.82001Z" stroke="white" stroke-miterlimit="10" stroke-linecap="round"/>
</g>
<defs>
<clipPath id="clip0_3933_21369">
<rect width="24" height="24" fill="white" transform="translate(0.294922 0.5)"/>
</clipPath>
</defs>
</svg>
