<svg width="25" height="25" viewBox="0 0 25 25" fill="none" xmlns="http://www.w3.org/2000/svg">
<g clip-path="url(#clip0_3933_21358)">
<path d="M20.7943 2.46286H2.91434C2.28316 2.46286 1.77148 2.97453 1.77148 3.60572V21.4857C1.77148 22.1169 2.28316 22.6286 2.91434 22.6286H20.7943C21.4255 22.6286 21.9372 22.1169 21.9372 21.4857V3.60572C21.9372 2.97453 21.4255 2.46286 20.7943 2.46286Z" stroke="white" stroke-miterlimit="10" stroke-linecap="round"/>
<path d="M2.05664 18.0229L8.69093 11.1029C8.90517 10.8891 9.19544 10.7691 9.49807 10.7691C9.80069 10.7691 10.091 10.8891 10.3052 11.1029L16.4138 17.2114C16.6112 17.4085 16.8738 17.5265 17.1522 17.5434C17.4306 17.5602 17.7055 17.4747 17.9252 17.3029L21.6395 14.16" stroke="white" stroke-miterlimit="10" stroke-linecap="round"/>
<path d="M16.8721 10.9514C18.3159 10.9514 19.4864 9.78099 19.4864 8.33716C19.4864 6.89333 18.3159 5.72287 16.8721 5.72287C15.4283 5.72287 14.2578 6.89333 14.2578 8.33716C14.2578 9.78099 15.4283 10.9514 16.8721 10.9514Z" stroke="white" stroke-miterlimit="10" stroke-linecap="round"/>
</g>
<defs>
<clipPath id="clip0_3933_21358">
<rect width="24" height="24" fill="white" transform="translate(0.294922 0.5)"/>
</clipPath>
</defs>
</svg>
