<svg width="32" height="32" viewBox="0 0 32 32" fill="none" xmlns="http://www.w3.org/2000/svg">
<path d="M19.8277 5.41139H24.6576V28H7.3418V5.42732H12.1431L19.8277 5.41139ZM19.8659 4H12.1431V6.9311H19.8659V4Z" stroke="white" stroke-miterlimit="10"/>
<path d="M11.9668 13.4543H20.9982" stroke="white" stroke-miterlimit="10"/>
<path d="M11.9668 21.9972H20.9982" stroke="white" stroke-miterlimit="10"/>
<path d="M11.9668 17.7257H20.9982" stroke="white" stroke-miterlimit="10"/>
<path d="M10.0227 14.2543C10.4645 14.2543 10.8227 13.8961 10.8227 13.4543C10.8227 13.0125 10.4645 12.6543 10.0227 12.6543C9.58083 12.6543 9.22266 13.0125 9.22266 13.4543C9.22266 13.8961 9.58083 14.2543 10.0227 14.2543Z" stroke="white" stroke-miterlimit="10"/>
<path d="M10.0227 18.5257C10.4645 18.5257 10.8227 18.1675 10.8227 17.7257C10.8227 17.2839 10.4645 16.9257 10.0227 16.9257C9.58083 16.9257 9.22266 17.2839 9.22266 17.7257C9.22266 18.1675 9.58083 18.5257 10.0227 18.5257Z" stroke="white" stroke-miterlimit="10"/>
<path d="M10.0227 22.7972C10.4645 22.7972 10.8227 22.439 10.8227 21.9972C10.8227 21.5553 10.4645 21.1972 10.0227 21.1972C9.58083 21.1972 9.22266 21.5553 9.22266 21.9972C9.22266 22.439 9.58083 22.7972 10.0227 22.7972Z" stroke="white" stroke-miterlimit="10"/>
</svg>
