<svg width="25" height="25" viewBox="0 0 25 25" fill="none" xmlns="http://www.w3.org/2000/svg">
<path d="M19.9305 9.95269C21.9826 9.95269 23.6461 8.28914 23.6461 6.23704C23.6461 4.18495 21.9826 2.52139 19.9305 2.52139C17.8784 2.52139 16.2148 4.18495 16.2148 6.23704C16.2148 8.28914 17.8784 9.95269 19.9305 9.95269Z" stroke="white" stroke-miterlimit="10" stroke-linecap="round"/>
<path d="M16.2139 6.23703L5.93102 16.7729C5.71597 16.9933 5.59104 17.2861 5.58077 17.5939C5.57049 17.9016 5.6756 18.2021 5.87547 18.4363L5.93411 18.5042C6.14092 18.7464 6.43332 18.8993 6.75021 18.9309C7.06709 18.9625 7.38394 18.8705 7.63454 18.674L18.945 9.82306" stroke="white" stroke-miterlimit="10" stroke-linecap="round"/>
<path d="M5.93644 18.5721L2.98614 21.5317C2.98614 21.5317 1.7517 22.6828 2.98614 23.9111C4.03541 24.9603 5.10628 23.9111 5.10628 23.9111L12.2197 17.9796C12.2197 17.9796 13.2844 16.9427 14.3213 17.9796C15.3583 19.0165 14.3213 20.0534 14.3213 20.0534" stroke="white" stroke-miterlimit="10" stroke-linecap="round"/>
</svg>
