<svg viewBox="0 0 24 25" fill="none" xmlns="http://www.w3.org/2000/svg">
  <g clip-path="url(#clip0_1109_17181)">
    <path
      d="M10.1654 17.1099L16.4511 19.4241C16.6977 19.4365 16.9413 19.3646 17.1417 19.2203C17.3421 19.0759 17.4875 18.8677 17.5539 18.6299C17.633 18.4046 17.6286 18.1584 17.5416 17.9361C17.4545 17.7138 17.2906 17.5301 17.0796 17.4184L10.7539 14.9927M9.55678 19.0441L15.5568 21.147C15.7654 21.1562 15.9717 21.0997 16.1466 20.9854C16.3214 20.871 16.4559 20.7047 16.5311 20.5099C16.6175 20.3179 16.64 20.1032 16.5953 19.8974C16.5505 19.6917 16.4409 19.5057 16.2825 19.367L10.1396 17.1127M10.7825 14.987L17.1425 17.4499C17.3699 17.5114 17.6121 17.4873 17.8228 17.3819C18.0335 17.2765 18.1982 17.0973 18.2854 16.8784C18.6054 16.0841 17.8311 15.6384 17.8311 15.6384L11.3396 12.8699H12.2654C12.2654 12.8699 13.3825 12.8413 13.3825 11.7527C13.3825 10.6641 12.2396 10.6098 12.2396 10.6098C12.2396 10.6098 7.32821 9.84699 4.88535 10.2013C3.65392 10.3813 2.12535 10.6098 1.74249 13.2813C1.20535 16.7727 2.77106 18.4784 3.62535 18.8956C4.95964 19.547 9.11964 20.7927 9.11964 20.7927L13.7882 22.4613C13.9847 22.4595 14.1751 22.393 14.33 22.2722C14.485 22.1513 14.5958 21.9828 14.6454 21.7927C14.6888 21.6124 14.6853 21.4241 14.6353 21.2455C14.5853 21.0669 14.4904 20.9042 14.3596 20.7727L9.55678 19.0584"
      stroke="white" stroke-linecap="round" stroke-linejoin="round" />
    <path
      d="M13.8225 9.7801L18.8225 5.32582C18.9472 5.11516 18.9973 4.86862 18.9646 4.626C18.932 4.38338 18.8185 4.15885 18.6425 3.98868C18.4805 3.81547 18.2621 3.70566 18.0265 3.67895C17.7908 3.65225 17.5534 3.7104 17.3568 3.84296L12.231 8.27439M15.2425 11.2287L19.9282 6.91439C20.0343 6.73451 20.0815 6.52592 20.063 6.31787C20.0446 6.10983 19.9615 5.91279 19.8253 5.75439C19.6968 5.58743 19.518 5.46619 19.3153 5.40858C19.1126 5.35096 18.8968 5.36001 18.6996 5.43439L13.811 9.80582M16.571 12.4372L20.2482 9.10582C20.3355 8.93204 20.3637 8.73454 20.3286 8.54327C20.2936 8.35199 20.1971 8.17735 20.0539 8.04582C19.9175 7.92181 19.7517 7.83468 19.5722 7.79269C19.3927 7.75069 19.2055 7.75521 19.0282 7.80582L15.2425 11.2344M12.2396 8.23725L17.4082 3.78582C17.5633 3.61036 17.6488 3.38427 17.6488 3.1501C17.6488 2.91594 17.5633 2.68985 17.4082 2.51439C16.8568 1.85725 16.0996 2.33153 16.0996 2.33153L10.6339 6.74868L11.071 5.93153C11.071 5.93153 11.571 4.93153 10.611 4.4201C9.65105 3.90868 9.05962 4.89153 9.05962 4.89153C8.38226 5.98612 7.77901 7.12486 7.25391 8.3001"
      stroke="white" stroke-linecap="round" stroke-linejoin="round" />
  </g>
  <defs>
    <clipPath id="clip0_1109_17181">
      <rect width="24" height="24" fill="white" transform="translate(0 0.560547)" />
    </clipPath>
  </defs>
</svg>