<svg viewBox="0 0 24 25" fill="none" xmlns="http://www.w3.org/2000/svg">
  <g clip-path="url(#clip0_1109_17224)">
    <path
      d="M11.7512 8.68017C13.5091 8.68017 14.9341 7.25515 14.9341 5.49731C14.9341 3.73947 13.5091 2.31445 11.7512 2.31445C9.99337 2.31445 8.56836 3.73947 8.56836 5.49731C8.56836 7.25515 9.99337 8.68017 11.7512 8.68017Z"
      stroke="white" stroke-miterlimit="10" stroke-linecap="round" />
    <path
      d="M5.19996 8.44615L11.5085 11.4462C11.662 11.5193 11.8299 11.5572 12 11.5572C12.17 11.5572 12.3379 11.5193 12.4914 11.4462L18.8 8.44615C18.8869 8.40473 18.983 8.38596 19.0791 8.39161C19.1753 8.39725 19.2685 8.42712 19.35 8.47844C19.4316 8.52975 19.4988 8.60085 19.5455 8.68512C19.5922 8.76939 19.6168 8.8641 19.6171 8.96044V18.8862C19.6191 18.998 19.5882 19.108 19.5283 19.2025C19.4683 19.2969 19.382 19.3717 19.28 19.4176L12.4685 22.4776C12.3212 22.5438 12.1615 22.5781 12 22.5781C11.8384 22.5781 11.6787 22.5438 11.5314 22.4776L4.71996 19.4176C4.6197 19.3725 4.53457 19.2995 4.47477 19.2073C4.41497 19.115 4.38304 19.0075 4.38281 18.8976V8.96044C4.38308 8.8641 4.40771 8.76939 4.4544 8.68512C4.50109 8.60085 4.56833 8.52975 4.64986 8.47844C4.7314 8.42712 4.82459 8.39725 4.92076 8.39161C5.01694 8.38596 5.11298 8.40473 5.19996 8.44615V8.44615Z"
      stroke="white" stroke-miterlimit="10" stroke-linecap="round" />
    <path d="M12 12.1094V22.1179" stroke="white" stroke-miterlimit="10" stroke-linecap="round" />
  </g>
  <defs>
    <clipPath id="clip0_1109_17224">
      <rect width="24" height="24" fill="white" transform="translate(0 0.560547)" />
    </clipPath>
  </defs>
</svg>